<svg xmlns="http://www.w3.org/2000/svg" width="207" height="250"><path d="M154.735 2.58c-5.629 1.144-14.613 3.89-19.965 6.103-5.351 2.213-9.964 3.79-10.25 3.504-.286-.286-.52-1.331-.52-2.322 0-1.262-.525-1.635-1.75-1.245-4.732 1.506-13.553 6.385-20.786 11.495-10.218 7.221-15.328 10.087-16.592 9.306-.549-.339-1.832.138-2.852 1.061-1.496 1.354-2.268 1.455-4.004.527-1.721-.922-2.661-.817-4.709.525-2.065 1.354-2.715 1.423-3.372.361-.651-1.053-1.189-.975-2.703.395-1.039.94-2.529 1.713-3.311 1.716-4.001.015-9.148 2.457-12.728 6.036-3.684 3.685-4.209 3.908-6.616 2.811-2.338-1.065-2.931-.888-5.596 1.665C37.342 46.089 36 47.965 36 48.687c0 .722-.45 1.313-1 1.313s-1 .675-1 1.5c0 1.801-1.973 2.04-2.063.25-.035-.687-.481-.209-.992 1.064-.51 1.273-1.382 2.034-1.937 1.691-.554-.343-1.008.304-1.008 1.436 0 1.96-.951 2.499-3.763 2.131-.695-.091-1.53.528-1.855 1.375-.325.848-.887 1.359-1.248 1.136-1.834-1.134-4.511 2.984-6.239 9.598-1.052 4.025-2.721 8.444-3.709 9.819C8.614 83.582 5 91.657 5 93.822c0 1.015-.291 2.136-.647 2.492-.356.356-1.466 3.018-2.466 5.916-2.408 6.976-1.79 10.538 5.799 33.438 3.322 10.027 3.49 10.289 12.091 18.857l8.723 8.689 4.614-.544c4.551-.536 4.675-.472 9.077 4.643 2.455 2.853 8.413 11.712 13.239 19.687 10.988 18.154 17.079 26.419 24.46 33.186 5.984 5.487 12.11 9.571 12.11 8.074 0-1.626-4.091-19.792-6.037-26.811-2.399-8.649-6.539-33.083-7.461-44.034-.664-7.879.693-16.415 2.608-16.415.437 0 3.628 1.953 7.092 4.34 3.464 2.386 10.348 6.738 15.298 9.67 10.574 6.264 14.399 9.086 24.5 18.075 4.125 3.671 13.8 10.751 21.5 15.733 19.199 12.421 20.973 13.837 35.892 28.637 7.21 7.152 14.908 14.534 17.108 16.405l4 3.401.5-64.881c.275-35.684.275-88.28 0-116.88l-.5-52-8.5-1.769c-11.226-2.336-29.34-1.981-43.265.849M.158 108c0 1.375.227 1.938.504 1.25.278-.687.278-1.812 0-2.5-.277-.687-.504-.125-.504 1.25" fill="undefined" fill-rule="evenodd"/></svg>